<svg width="604" height="604" viewBox="0 0 604 604" fill="none" xmlns="http://www.w3.org/2000/svg">
<path d="M586.132 235.339C519.085 120.503 337.216 161.4 300.075 105.551C281.05 76.9929 259.77 43.7995 228.901 26.5632C199.477 10.0559 165.362 4.26462 135.621 6.43807C29.4104 14.2102 -15.6132 109.237 4.78703 213.591C32.024 352.788 155.416 494.985 302.001 495.975C378.677 496.553 451.942 469.041 509.305 430.345L510.584 429.478C567.947 390.425 637.332 323.006 586.132 235.339Z" fill="#86E0CA"/>
<path opacity="0.7" d="M586.132 235.339C519.085 120.503 337.216 161.4 300.075 105.551C281.05 76.9929 259.77 43.7995 228.901 26.5632C199.477 10.0559 165.362 4.26462 135.621 6.43807C29.4104 14.2102 -15.6132 109.237 4.78703 213.591C32.024 352.788 155.416 494.985 302.001 495.975C378.677 496.553 451.942 469.041 509.305 430.345L510.584 429.478C567.947 390.425 637.332 323.006 586.132 235.339Z" fill="white"/>
<path d="M65.6551 243.692H58.1993C50.1985 243.692 42.5254 246.87 36.868 252.528C31.2105 258.185 28.0322 265.858 28.0322 273.859V439.4C28.0322 447.4 31.2105 455.073 36.868 460.731C42.5254 466.388 50.1985 469.567 58.1993 469.567H160.489C168.49 469.567 176.163 466.388 181.821 460.731C187.478 455.073 190.657 447.4 190.657 439.4" stroke="#263238" stroke-width="1.10311" stroke-linecap="round" stroke-linejoin="round" stroke-dasharray="4.41 4.41"/>
<path d="M182.319 87.4909V54.7927C182.319 49.9002 184.26 45.2074 187.715 41.7439C191.171 38.2805 195.859 36.3293 200.752 36.3184H333.773C338.673 36.3184 343.372 38.2648 346.837 41.7294C350.301 45.194 352.248 49.893 352.248 54.7927" stroke="#263238" stroke-width="1.10311" stroke-linecap="round" stroke-linejoin="round" stroke-dasharray="4.41 4.41"/>
<path d="M302.003 597.195C447.506 597.195 565.459 580.714 565.459 560.383C565.459 540.053 447.506 523.572 302.003 523.572C156.5 523.572 38.5464 540.053 38.5464 560.383C38.5464 580.714 156.5 597.195 302.003 597.195Z" fill="#86E0CA"/>
<path opacity="0.5" d="M302.003 597.195C447.506 597.195 565.459 580.714 565.459 560.383C565.459 540.053 447.506 523.572 302.003 523.572C156.5 523.572 38.5464 540.053 38.5464 560.383C38.5464 580.714 156.5 597.195 302.003 597.195Z" fill="white"/>
<path d="M550.356 131.356V379.048C550.356 387.145 547.14 394.91 541.416 400.637C535.692 406.364 527.928 409.583 519.831 409.587H84.1766C76.0796 409.583 68.3156 406.364 62.5915 400.637C56.8674 394.91 53.6519 387.145 53.6519 379.048V131.356C53.6519 130.627 53.6519 129.981 53.7481 129.21C54.2844 121.505 57.723 114.29 63.3702 109.021C69.0173 103.752 76.4528 100.82 84.1766 100.818H519.831C527.564 100.821 535.007 103.76 540.655 109.041C546.304 114.322 549.737 121.55 550.26 129.265C550.328 129.926 550.356 130.641 550.356 131.356Z" fill="white" stroke="#263238" stroke-width="1.10311" stroke-linecap="round" stroke-linejoin="round"/>
<path d="M68.5044 140.653H537.05V369.458C537.05 377.046 534.035 384.324 528.669 389.69C523.303 395.056 516.026 398.07 508.437 398.07H97.1308C89.5422 398.07 82.2645 395.056 76.8986 389.69C71.5327 384.324 68.5181 377.046 68.5181 369.458V140.653H68.5044Z" fill="#9A9A9A"/>
<path opacity="0.2" d="M537.064 140.653V369.458C537.104 377.004 534.146 384.257 528.84 389.622C523.533 394.988 516.314 398.027 508.767 398.07H96.801C89.255 398.027 82.0351 394.988 76.7289 389.622C71.4227 384.257 68.4646 377.004 68.5048 369.458V140.653H537.064Z" fill="white"/>
<path d="M550.251 129.261H53.7393C54.2755 121.556 57.7141 114.341 63.3613 109.071C69.0085 103.802 76.4439 100.871 84.1677 100.868H519.823C527.546 100.871 534.982 103.802 540.629 109.071C546.276 114.341 549.715 121.556 550.251 129.261Z" fill="#5AE4CE" stroke="#263238" stroke-width="1.10311" stroke-miterlimit="10"/>
<path d="M114.748 115.015C114.748 116.085 114.431 117.13 113.837 118.019C113.243 118.908 112.399 119.601 111.411 120.01C110.423 120.419 109.336 120.526 108.287 120.318C107.239 120.109 106.276 119.594 105.519 118.838C104.763 118.082 104.249 117.119 104.04 116.07C103.831 115.021 103.938 113.934 104.348 112.946C104.757 111.959 105.45 111.114 106.339 110.52C107.228 109.926 108.273 109.609 109.342 109.609C110.776 109.609 112.151 110.179 113.165 111.193C114.179 112.206 114.748 113.581 114.748 115.015Z" fill="#263238"/>
<path d="M137.618 115.015C137.618 116.085 137.301 117.13 136.707 118.019C136.113 118.908 135.268 119.601 134.281 120.01C133.293 120.419 132.206 120.526 131.157 120.318C130.108 120.109 129.145 119.594 128.389 118.838C127.633 118.082 127.118 117.119 126.91 116.07C126.701 115.021 126.808 113.934 127.217 112.946C127.626 111.959 128.319 111.114 129.208 110.52C130.097 109.926 131.143 109.609 132.212 109.609C133.646 109.609 135.021 110.179 136.035 111.193C137.048 112.206 137.618 113.581 137.618 115.015Z" fill="#263238"/>
<path d="M155.066 120.421C158.052 120.421 160.472 118.001 160.472 115.015C160.472 112.03 158.052 109.609 155.066 109.609C152.08 109.609 149.66 112.03 149.66 115.015C149.66 118.001 152.08 120.421 155.066 120.421Z" fill="#263238"/>
<path d="M537.046 140.653V369.458C537.046 377.046 534.031 384.324 528.665 389.69C523.3 395.056 516.022 398.07 508.433 398.07H97.1271C90.504 398.069 84.0865 395.77 78.969 391.566C73.8516 387.361 70.3511 381.512 69.0647 375.015V374.933C68.715 373.119 68.54 371.277 68.542 369.43V140.653H537.046Z" stroke="#263238" stroke-width="1.10311" stroke-miterlimit="10"/>
<path d="M536.613 176.035C534.607 174.909 532.473 174.027 530.258 173.408L527.685 161.922H516.763L514.218 173.408C511.99 174.016 509.846 174.898 507.835 176.035L497.972 169.721L490.255 177.411L496.459 187.274C495.323 189.285 494.441 191.429 493.832 193.657L482.345 196.202V207.124L493.832 209.696C494.434 211.935 495.316 214.089 496.459 216.107L490.145 226.039L497.876 233.756L507.794 227.442C509.8 228.581 511.939 229.468 514.163 230.083L516.722 241.555H527.603L530.161 230.083C532.378 229.462 534.512 228.575 536.517 227.442L537.026 227.772V175.76L536.613 176.035ZM522.252 215.928C519.46 215.928 516.73 215.1 514.409 213.548C512.088 211.997 510.279 209.792 509.211 207.212C508.143 204.632 507.864 201.794 508.41 199.056C508.956 196.318 510.301 193.803 512.277 191.829C514.252 189.856 516.768 188.513 519.507 187.97C522.245 187.427 525.083 187.708 527.662 188.779C530.241 189.849 532.444 191.66 533.993 193.983C535.543 196.306 536.368 199.036 536.365 201.828C536.365 203.681 536 205.515 535.291 207.227C534.581 208.939 533.541 210.494 532.231 211.803C530.92 213.113 529.364 214.151 527.652 214.859C525.939 215.566 524.104 215.93 522.252 215.928Z" fill="#263238"/>
<path d="M339.759 187.107V164.08L315.548 158.701C314.242 154.023 312.395 149.513 310.046 145.261L312.976 140.653H198.663L201.483 145.138C199.105 149.37 197.257 153.879 195.98 158.563L171.756 163.956V187.039L195.98 192.445C197.257 197.164 199.104 201.709 201.483 205.981L188.181 226.904L204.482 243.191L225.391 229.875C229.633 232.261 234.145 234.131 238.83 235.446L244.223 259.588H267.195L272.615 235.391C277.286 234.07 281.784 232.2 286.014 229.82L306.937 243.136L323.224 226.849L310.004 205.926C312.348 201.681 314.194 197.181 315.507 192.513L339.759 187.107ZM255.847 205.348C249.962 205.348 244.209 203.603 239.316 200.333C234.423 197.064 230.609 192.417 228.357 186.98C226.105 181.543 225.516 175.56 226.664 169.789C227.812 164.017 230.646 158.715 234.807 154.554C238.968 150.393 244.27 147.559 250.042 146.411C255.814 145.263 261.796 145.852 267.233 148.104C272.67 150.356 277.317 154.17 280.587 159.063C283.856 163.956 285.601 169.709 285.601 175.593C285.603 179.501 284.835 183.371 283.34 186.982C281.845 190.593 279.654 193.874 276.89 196.637C274.127 199.4 270.846 201.592 267.235 203.087C263.625 204.581 259.755 205.35 255.847 205.348Z" fill="#263238"/>
<path d="M186.972 345.234L187.948 326.952L169.006 321.615C168.127 317.858 166.825 314.212 165.127 310.747L176.572 294.68L164.302 281.076L147.162 290.705C143.885 288.644 140.382 286.968 136.721 285.711L133.447 266.288L115.179 265.449L109.896 284.446C106.133 285.29 102.484 286.583 99.0291 288.298L82.9758 276.866L69.3435 289.123L79.0553 306.277C76.9733 309.539 75.2921 313.04 74.0481 316.704L68.5457 317.612V342.373L72.5624 343.501C73.3958 347.27 74.6845 350.924 76.4004 354.382L68.5044 365.455L69.0271 374.933V375.016L77.1845 384.054L94.352 374.356C97.6226 376.459 101.138 378.154 104.82 379.404L108.039 398.057L108.191 398.841L126.459 399.804L126.94 398.057L131.741 380.821C135.522 379.974 139.188 378.681 142.663 376.969L158.689 388.387L172.308 376.144L162.678 358.976C164.741 355.718 166.399 352.222 167.617 348.563L186.972 345.234ZM138.454 316.69C135.325 313.209 131.233 310.735 126.698 309.58C122.162 308.425 117.386 308.641 112.973 310.201C108.56 311.761 104.709 314.595 101.907 318.344C99.1049 322.093 97.4777 326.589 97.2313 331.263C96.9849 335.937 98.1303 340.579 100.523 344.602C102.915 348.625 106.447 351.848 110.671 353.863C114.895 355.879 119.623 356.596 124.255 355.924C128.887 355.253 133.215 353.222 136.693 350.09C141.337 345.895 144.129 340.03 144.459 333.781C144.789 327.532 142.63 321.406 138.454 316.745V316.69Z" fill="#263238"/>
<path d="M333.087 317.985C333.794 315.154 334.168 312.25 334.201 309.333L347.338 302.455L343.707 289.125L328.878 289.813C327.376 287.322 325.589 285.013 323.554 282.935L327.942 268.752L315.975 261.874L305.96 272.797C303.134 272.114 300.242 271.745 297.335 271.696L290.457 258.559L277.141 262.177L277.843 277.02C275.351 278.521 273.043 280.308 270.965 282.343L256.769 277.955L249.89 289.909L260.895 299.91C260.184 302.73 259.819 305.626 259.809 308.535L246.644 315.413L250.276 328.729L265.132 328.027C266.605 330.531 268.384 332.842 270.428 334.905L266.013 349.019L277.994 355.897L287.953 345.057C290.783 345.769 293.688 346.134 296.606 346.144L303.484 359.295L316.8 355.677L316.208 342.994L316.112 340.82C318.639 339.333 320.976 337.546 323.073 335.497L337.255 339.899L343.115 329.664L344.106 327.931L333.087 317.985ZM301.627 326.074C298.212 327.016 294.595 326.922 291.233 325.805C287.872 324.688 284.918 322.598 282.746 319.799C280.574 317.001 279.282 313.621 279.034 310.087C278.786 306.554 279.592 303.026 281.352 299.952C283.112 296.877 285.744 294.395 288.917 292.819C292.089 291.243 295.658 290.645 299.171 291.1C302.684 291.555 305.983 293.044 308.648 295.376C311.314 297.709 313.227 300.78 314.145 304.202C315.368 308.762 314.738 313.62 312.393 317.717C310.048 321.815 306.178 324.819 301.627 326.074Z" fill="#263238"/>
<path d="M485.392 341.428L488.418 323.132L469.903 315.69C469.482 311.791 468.591 307.957 467.248 304.273L480.577 289.43L469.793 274.298L451.414 282.098C448.363 279.652 445.029 277.583 441.483 275.935L440.41 256.003L422.114 252.976L414.617 271.409C410.735 271.866 406.918 272.766 403.241 274.092L388.357 260.762L373.294 271.547L381.107 289.911C378.957 292.596 377.09 295.495 375.536 298.564C375.33 298.99 375.109 299.417 374.917 299.843L354.998 300.944L351.958 319.212L354.957 320.422L370.474 326.681C370.897 330.562 371.789 334.377 373.129 338.044L359.771 352.983L370.57 368.115L388.934 360.274C391.976 362.741 395.306 364.829 398.852 366.491L399.884 386.328L418.166 389.354L425.649 371.058C429.54 370.633 433.365 369.737 437.039 368.39L451.896 381.719L467.028 370.921L459.214 352.543C461.703 349.489 463.805 346.139 465.473 342.57L485.392 341.428ZM434.082 340.602C430.233 343.364 425.651 344.922 420.917 345.08C416.183 345.237 411.508 343.987 407.484 341.488C403.46 338.988 400.267 335.351 398.31 331.038C396.353 326.724 395.72 321.926 396.489 317.252C397.259 312.578 399.398 308.237 402.635 304.778C405.872 301.32 410.061 298.899 414.674 297.822C419.287 296.744 424.116 297.059 428.55 298.727C432.984 300.394 436.824 303.339 439.584 307.189C443.281 312.353 444.776 318.775 443.739 325.041C442.702 331.307 439.218 336.905 434.054 340.602H434.082Z" fill="#263238"/>
<path d="M237.453 205.981H93.5923C83.6323 205.981 75.5581 214.056 75.5581 224.016V423.19C75.5581 433.15 83.6323 441.224 93.5923 441.224H237.453C247.413 441.224 255.488 433.15 255.488 423.19V224.016C255.488 214.056 247.413 205.981 237.453 205.981Z" fill="#5AE4CE" stroke="#263238" stroke-width="1.10311" stroke-miterlimit="10"/>
<path opacity="0.2" d="M255.488 224.016C255.488 214.056 247.413 205.981 237.453 205.981H165.523H93.5923C83.6323 205.981 75.5581 214.056 75.5581 224.016V423.19C75.5581 433.15 83.6323 441.224 93.5923 441.224H237.453C247.413 441.224 255.488 433.15 255.488 423.19V224.016Z" fill="black"/>
<path d="M272.231 241.791V440.965C272.233 443.335 271.768 445.681 270.862 447.871C269.957 450.061 268.628 452.05 266.954 453.726C265.279 455.403 263.29 456.732 261.101 457.639C258.912 458.547 256.566 459.013 254.197 459.013H110.336C107.968 459.012 105.623 458.543 103.436 457.635C101.248 456.727 99.2611 455.398 97.5878 453.722C95.9144 452.046 94.5876 450.057 93.6829 447.868C92.7783 445.679 92.3136 443.334 92.3154 440.965V241.791C92.3154 237.011 94.2136 232.426 97.5927 229.044C100.972 225.662 105.555 223.761 110.336 223.757H254.197C258.98 223.757 263.567 225.657 266.949 229.039C270.331 232.421 272.231 237.008 272.231 241.791Z" fill="white" stroke="#263238" stroke-width="1.10311" stroke-linecap="round" stroke-linejoin="round"/>
<path d="M272.231 241.791V252.452H92.3154V241.791C92.3154 237.011 94.2136 232.426 97.5927 229.044C100.972 225.662 105.555 223.761 110.336 223.757H254.197C258.98 223.757 263.567 225.657 266.949 229.039C270.331 232.421 272.231 237.008 272.231 241.791Z" fill="#5AE4CE" stroke="#263238" stroke-width="1.10311" stroke-miterlimit="10"/>
<path d="M153.501 264.802H109.234V272.23H153.501V264.802Z" fill="#5AE4CE"/>
<path d="M153.501 331.368H109.234V338.797H153.501V331.368Z" fill="#5AE4CE"/>
<path d="M153.501 391.734H109.234V399.163H153.501V391.734Z" fill="#5AE4CE"/>
<path d="M234.951 283.198H109.234V288.645H234.951V283.198Z" fill="#263238"/>
<path d="M212.281 293.607H109.234V298.917H212.281V293.607Z" fill="#263238"/>
<path d="M225.776 303.859H109.234V309.169H225.776V303.859Z" fill="#263238"/>
<path d="M225.776 314.092H109.234V319.401H225.776V314.092Z" fill="#263238"/>
<path d="M234.951 343.554H109.234V349.002H234.951V343.554Z" fill="#263238"/>
<path d="M212.281 353.973H109.234V359.283H212.281V353.973Z" fill="#263238"/>
<path d="M225.776 364.217H109.234V369.526H225.776V364.217Z" fill="#263238"/>
<path d="M234.951 409.836H109.234V415.283H234.951V409.836Z" fill="#263238"/>
<path d="M212.281 420.26H109.234V425.57H212.281V420.26Z" fill="#263238"/>
<path d="M225.776 430.511H109.234V435.821H225.776V430.511Z" fill="#263238"/>
<path d="M475.008 85.6432V166.144C475.008 168.968 474.451 171.765 473.37 174.375C472.288 176.984 470.703 179.355 468.705 181.352C466.707 183.349 464.336 184.932 461.725 186.012C459.115 187.091 456.318 187.646 453.493 187.644H268.089C265.264 187.646 262.467 187.091 259.857 186.012C257.246 184.932 254.874 183.349 252.876 181.352C250.879 179.355 249.294 176.984 248.212 174.375C247.131 171.765 246.574 168.968 246.574 166.144V85.6432C246.578 79.9383 248.846 74.4681 252.88 70.4341C256.914 66.4002 262.384 64.1323 268.089 64.1287H453.493C459.199 64.1287 464.671 66.3954 468.706 70.4301C472.741 74.4649 475.008 79.9372 475.008 85.6432Z" fill="white" stroke="#222221" stroke-width="1.10311" stroke-miterlimit="10"/>
<path d="M475.008 85.6431V87.4865H246.574V85.6431C246.578 79.9383 248.846 74.4681 252.88 70.4341C256.914 66.4002 262.384 64.1323 268.089 64.1287H453.493C459.199 64.1287 464.671 66.3954 468.706 70.4301C472.741 74.4649 475.008 79.9372 475.008 85.6431Z" fill="#5AE4CE" stroke="#263238" stroke-width="1.10311" stroke-miterlimit="10"/>
<path d="M280.147 79.6612C279.686 80.1237 279.097 80.4389 278.457 80.567C277.816 80.695 277.152 80.6301 276.548 80.3804C275.944 80.1308 275.428 79.7077 275.065 79.1646C274.702 78.6215 274.508 77.9828 274.508 77.3295C274.508 76.6762 274.702 76.0376 275.065 75.4945C275.428 74.9514 275.944 74.5283 276.548 74.2786C277.152 74.029 277.816 73.9641 278.457 74.0921C279.097 74.2201 279.686 74.5354 280.147 74.9979C280.761 75.6186 281.106 76.4564 281.106 77.3295C281.106 78.2027 280.761 79.0405 280.147 79.6612Z" fill="#263238"/>
<path d="M295.443 79.6612C294.982 80.1237 294.393 80.4389 293.753 80.567C293.112 80.695 292.448 80.6301 291.844 80.3804C291.24 80.1308 290.724 79.7077 290.361 79.1646C289.998 78.6215 289.804 77.9828 289.804 77.3295C289.804 76.6762 289.998 76.0376 290.361 75.4945C290.724 74.9514 291.24 74.5283 291.844 74.2786C292.448 74.029 293.112 73.9641 293.753 74.0921C294.393 74.2201 294.982 74.5354 295.443 74.9979C296.057 75.6186 296.401 76.4564 296.401 77.3295C296.401 78.2027 296.057 79.0405 295.443 79.6612Z" fill="#263238"/>
<path d="M310.733 79.6612C310.272 80.1237 309.683 80.4389 309.043 80.567C308.402 80.695 307.738 80.6301 307.134 80.3804C306.53 80.1308 306.014 79.7077 305.651 79.1646C305.288 78.6215 305.094 77.9828 305.094 77.3295C305.094 76.6762 305.288 76.0376 305.651 75.4945C306.014 74.9514 306.53 74.5283 307.134 74.2786C307.738 74.029 308.402 73.9641 309.043 74.0921C309.683 74.2201 310.272 74.5354 310.733 74.9979C311.347 75.6186 311.692 76.4564 311.692 77.3295C311.692 78.2027 311.347 79.0405 310.733 79.6612Z" fill="#263238"/>
<path d="M335.808 102.291H261.14V166.834H335.808V102.291Z" stroke="#263238" stroke-width="1.10311" stroke-linecap="round" stroke-linejoin="round" stroke-dasharray="4.41 4.41"/>
<path d="M433.273 102.291H347.339V106.83H433.273V102.291Z" fill="#263238"/>
<path d="M413.258 111.686H347.339V116.212H413.258V111.686Z" fill="#263238"/>
<path d="M445.488 121.038H347.339V125.619H445.488V121.038Z" fill="#263238"/>
<path d="M430.921 130.161H347.339V134.741H430.921V130.161Z" fill="#263238"/>
<path d="M481.26 285.438H439.235C434.274 285.438 430.252 289.46 430.252 294.421V319.086C430.252 324.047 434.274 328.068 439.235 328.068H481.26C486.221 328.068 490.243 324.047 490.243 319.086V294.421C490.243 289.46 486.221 285.438 481.26 285.438Z" fill="white" stroke="#263238" stroke-width="1.10311" stroke-linecap="round" stroke-linejoin="round"/>
<path d="M449.601 298.26L438.06 305.496L448.776 314.988" stroke="#263238" stroke-width="1.10311" stroke-linecap="round" stroke-linejoin="round"/>
<path d="M470.621 315.675L480.993 306.844L469.025 299.003" stroke="#263238" stroke-width="1.10311" stroke-linecap="round" stroke-linejoin="round"/>
<path d="M455.219 321.125L463.734 294.41" stroke="#263238" stroke-width="1.10311" stroke-linecap="round" stroke-linejoin="round"/>
<path d="M366.459 553.599C366.459 553.599 326.567 565.03 320.995 567.011C315.933 568.799 302.205 573.614 291.901 572.115C290.907 571.972 289.923 571.76 288.958 571.482C278.517 568.373 273.826 565.47 272.45 558.909C271.075 552.347 276.275 547.505 281.282 544.41C286.289 541.315 313.443 538.082 313.443 538.082L320.005 540.008L366.459 553.599Z" fill="#5AE4CE"/>
<path d="M291.901 572.115C290.907 571.972 289.923 571.76 288.958 571.482C278.517 568.373 273.826 565.47 272.45 558.909C271.075 552.347 276.275 547.505 281.282 544.41C286.289 541.315 313.443 538.082 313.443 538.082L320.005 540.008C314.062 542.759 291.943 544.259 287.114 547.037C282.286 549.816 279.961 555.043 282.809 562.169C284.336 565.883 288.407 569.528 291.901 572.115Z" fill="white"/>
<path d="M360.464 555.222C360.464 555.222 330.504 562.981 318.618 567.947C306.733 572.913 284.077 575.086 275.974 564.852C267.872 554.617 275.039 545.786 283.114 543.819C291.189 541.851 307.517 538.756 316.431 540.008" stroke="#263238" stroke-width="1.10311" stroke-linecap="round" stroke-linejoin="round"/>
<path d="M292.5 571.578C292.5 571.578 277.258 563.214 282.32 551.494C286.062 542.855 306.393 544.726 316.463 540.008" stroke="#263238" stroke-width="1.10311" stroke-linecap="round" stroke-linejoin="round"/>
<path d="M487.971 573.971C487.558 578.098 486.114 581.963 481.987 584.398C479.236 586.021 475.329 586.984 469.73 586.929C455.74 586.75 429.439 576.75 429.439 576.75L404.815 563.131L417.622 542.869L421.13 537.366L430.182 539.402C430.182 539.402 437.679 543.653 445.217 547.037C452.755 550.421 471.065 551.164 477.516 556.35C483.968 561.536 488.672 567.176 487.971 573.971Z" fill="#5AE4CE"/>
<path d="M487.967 573.971C487.554 578.098 486.11 581.963 481.983 584.398C483.172 580.341 482.929 575.999 481.295 572.1C478.544 565.924 469.589 560.476 457.813 559.568C446.038 558.661 437.028 553.158 432.31 550.696C428.623 548.784 420.851 544.602 417.618 542.869L421.126 537.366L430.177 539.402C430.177 539.402 437.675 543.653 445.213 547.037C452.751 550.421 471.06 551.164 477.512 556.35C483.964 561.536 488.668 567.176 487.967 573.971Z" fill="white"/>
<path d="M410.27 566.958C427.994 577.261 447.584 583.952 467.907 586.643C472.392 587.18 477.605 587.262 480.604 583.892C481.402 582.919 481.996 581.795 482.351 580.587C482.705 579.379 482.813 578.113 482.668 576.863C482.131 570.535 476.808 565.528 470.975 563.01C465.142 560.493 458.718 559.915 452.514 558.526C446.344 557.135 440.38 554.952 434.769 552.033C430.312 549.708 426.006 546.888 421.096 545.843C416.185 544.797 410.338 546.063 407.711 550.355" stroke="#263238" stroke-width="1.10311" stroke-linecap="round" stroke-linejoin="round"/>
<path d="M478.955 585.608C481.26 584.505 483.274 582.878 484.839 580.857C486.403 578.837 487.474 576.478 487.965 573.971C488.859 568.014 485.461 562.017 480.688 558.358C475.915 554.698 469.931 552.965 464.029 551.741C458.128 550.517 452.089 549.691 446.435 547.449C437.81 544.065 429.295 537.407 420.299 539.787" stroke="#263238" stroke-width="1.10311" stroke-linecap="round" stroke-linejoin="round"/>
<path d="M438.062 353.849L396.395 338.002L395.872 337.796C395.872 337.796 396.023 336.695 396.147 335.045C396.409 331.716 396.546 326.296 394.978 324.466C392.653 321.715 386.078 324.026 379.654 321.082C373.23 318.138 361.358 323.407 361.358 323.407C361.358 323.407 352.774 321.825 348.978 328.015C347.052 333.009 347.712 340.396 347.712 340.396L346.928 340.671C341.962 342.528 314.945 352.694 309.236 356.779C302.922 361.25 295.934 407.154 293.692 420.635C291.45 434.116 287.46 446.262 289.483 450.898C291.505 455.534 320.53 477.888 337.23 483.651C353.93 489.415 413.15 487.778 413.15 487.778C413.15 487.778 414.113 487.517 415.832 486.967C425.847 483.748 461.379 470.459 480.238 439.261C480.266 439.316 461.998 379.436 438.062 353.849ZM325.482 431.062C322.415 433.236 324.107 441.654 324.107 441.654L318.893 437.06L331.989 404.857L337.574 429.618C337.574 429.618 328.55 428.902 325.482 431.062ZM430.249 451.517C428.804 452.26 434.375 436.785 431.734 433.277C429.093 429.769 421.128 430.099 421.128 430.099L421.802 425.876L426.521 401.665L428.089 399.808C428.089 399.808 444.293 427.582 447.196 437.376C447.196 437.404 429.533 451.517 430.249 451.517Z" fill="#5AE4CE"/>
<path d="M359.393 253.418L337.878 276.253C337.878 276.253 334.921 278.88 336.09 285.497C337.259 292.114 340.01 297.877 342.088 298.263C343.732 298.55 345.398 298.698 347.067 298.703C347.067 298.703 351.676 308.69 354.95 312.61C354.95 312.61 356.078 328.031 355.472 332.309C355.472 332.309 363.203 339.063 370.48 339.916C377.757 340.769 388.996 329.626 388.996 329.626L391.747 315.98C391.747 315.98 398.35 305.966 398.79 303.297C399.23 300.629 402.257 301.316 403.742 299.996C405.228 298.675 408.653 292.801 409.245 287.244C409.836 281.686 409.85 275.304 403.398 277.174C397.8 275.675 401.307 263.845 401.307 263.845L391.472 255.178L359.393 253.418Z" fill="white"/>
<path opacity="0.5" d="M396.39 338C396.066 338.851 395.694 339.682 395.276 340.49C391.727 347.176 376.265 359.928 376.265 359.928L371.588 345.553L369.03 359.928C363.871 357.672 348.134 344.039 348.134 344.039C348.134 344.039 347.598 342.76 346.951 340.765L347.735 340.49C347.735 340.49 347.075 333.048 349.001 328.11C352.77 321.92 361.381 323.502 361.381 323.502C361.381 323.502 373.253 318.233 379.677 321.177C386.101 324.121 392.676 321.837 395.001 324.561C397.326 327.284 395.895 337.849 395.895 337.849L396.39 338Z" fill="white"/>
<path opacity="0.2" d="M438.059 353.847L396.392 338L395.869 337.793C395.869 337.793 396.021 336.693 396.145 335.042L395.278 340.448L389.115 348.812C395.703 351.237 402.135 354.067 408.374 357.286C411.361 358.885 413.797 361.346 415.367 364.349C416.937 367.352 417.568 370.757 417.178 374.123L409.502 439.808L406.352 477.101L415.857 486.964C425.871 483.745 461.403 470.457 480.263 439.258C480.263 439.313 461.995 379.433 438.059 353.847ZM430.246 451.515C428.802 452.257 434.373 436.782 431.732 433.274C429.09 429.766 421.126 430.096 421.126 430.096L421.8 425.873L426.518 401.663L428.086 399.806C428.086 399.806 444.291 427.579 447.193 437.373C447.193 437.401 429.531 451.515 430.246 451.515Z" fill="black"/>
<path opacity="0.2" d="M340.333 433.275L333.854 411.623C333.854 411.623 322.23 371.992 314.265 362.225L316.356 390.095C316.356 390.095 309.478 423.385 303.192 433.275C296.905 443.166 295.502 445.656 303.192 445.656C310.881 445.656 329.603 460.567 329.603 460.567L328.159 448.187L340.333 433.275ZM324.005 441.653L318.791 437.058L331.887 404.855L337.472 429.616C337.472 429.616 328.503 428.942 325.435 431.102C322.368 433.262 324.005 441.653 324.005 441.653Z" fill="black"/>
<path d="M354.952 312.605C354.952 312.605 356.135 324.284 354.952 329.621" stroke="#263238" stroke-width="1.10311" stroke-linecap="round" stroke-linejoin="round"/>
<path d="M390.189 328.054C390.202 324.299 390.636 320.557 391.483 316.898" stroke="#263238" stroke-width="1.10311" stroke-linecap="round" stroke-linejoin="round"/>
<path d="M393.311 262.125C393.311 262.125 400.382 270.998 400.01 277.711C399.639 284.424 399.116 292.375 399.295 300.161C399.474 307.947 386.791 324.261 380.27 325.706C373.75 327.15 368.138 327.522 363.969 323.353C359.801 319.185 355.633 313.394 350.213 305.966C344.794 298.538 346.087 282.237 346.087 282.237" stroke="#263238" stroke-width="1.10311" stroke-linecap="round" stroke-linejoin="round"/>
<path d="M376.287 288.437C375.857 290.875 375.672 293.35 375.737 295.824C375.595 297.91 376.244 299.972 377.553 301.602C378.337 302.4 379.465 303.046 379.616 304.147C379.612 304.642 379.475 305.127 379.218 305.551C378.962 305.975 378.595 306.321 378.158 306.554C377.276 306.999 376.426 307.505 375.613 308.067" stroke="#263238" stroke-width="1.10311" stroke-linecap="round" stroke-linejoin="round"/>
<path d="M365.102 308.919C365.102 308.919 365.914 314.187 372.971 315.288" stroke="#263238" stroke-width="1.10311" stroke-linecap="round" stroke-linejoin="round"/>
<path d="M365.823 292.457C365.823 293.983 365.162 295.208 364.351 295.208C363.539 295.208 362.879 293.983 362.879 292.457C362.879 290.93 363.539 289.705 364.351 289.705C365.162 289.705 365.823 290.943 365.823 292.457Z" fill="#263238"/>
<path d="M386.893 293.113C386.893 294.64 386.233 295.864 385.422 295.864C384.61 295.864 383.95 294.626 383.95 293.113C383.95 291.6 384.61 290.362 385.422 290.362C386.233 290.362 386.893 291.586 386.893 293.113Z" fill="#263238"/>
<path d="M382.634 286.445C382.634 286.445 389.512 279.567 395.276 287.243" stroke="#263238" stroke-width="2.20621" stroke-linecap="round" stroke-linejoin="round"/>
<path d="M368.152 286.579C368.152 286.579 363.806 281.709 356.955 286.579" stroke="#263238" stroke-width="2.20621" stroke-linecap="round" stroke-linejoin="round"/>
<path d="M355.475 319.101C355.475 319.101 359.671 330.656 369.038 333.943C378.406 337.231 390.842 320.187 390.842 320.187L390.195 317.973C390.195 317.973 382.038 328.565 372.973 326.763C363.907 324.961 354.952 312.663 354.952 312.663L355.475 319.101Z" fill="#263238"/>
<path d="M347.07 298.257C347.07 298.257 341.485 300.224 340 295.878C338.514 291.531 333.424 280.072 337.881 276.248C342.338 272.424 345.915 281.296 345.915 281.296" stroke="#263238" stroke-width="1.10311" stroke-linecap="round" stroke-linejoin="round"/>
<path d="M399.287 300.626C399.287 300.626 404.473 301.672 405.959 297.325C407.444 292.978 412.534 281.519 408.077 277.695C403.62 273.871 400.044 282.743 400.044 282.743" stroke="#263238" stroke-width="1.10311" stroke-linecap="round" stroke-linejoin="round"/>
<path d="M345.905 292.455C347.845 292.149 349.596 291.116 350.802 289.566C351.539 288.206 352.006 286.716 352.178 285.178C352.688 282.253 352.946 279.289 352.948 276.319C352.887 275.159 352.994 273.996 353.264 272.866C353.677 271.729 354.313 270.686 355.135 269.799C357.075 267.515 359.427 265.589 361.284 263.223C362.28 262.107 363.037 260.799 363.51 259.38C363.983 257.961 364.162 256.46 364.035 254.97C368.291 258.478 373.264 261.012 378.604 262.393C383.944 263.774 389.522 263.968 394.945 262.962C404.781 261.036 414.204 252.411 413.062 241.571C412.846 239.754 412.067 238.05 410.834 236.698C409.6 235.346 407.974 234.414 406.184 234.033C401.328 232.822 396.967 235.408 392.565 237.073C384.546 240.099 376.691 234.9 368.589 234.033C361.711 233.276 353.141 234.143 349.536 241.035C349.536 241.035 337.156 242.493 331.654 252.727C326.151 262.962 336.564 277.117 336.564 277.117C336.564 277.117 340.691 272.055 346.097 282.289L345.905 292.455Z" fill="#263238"/>
<path d="M394.161 259.509C394.161 259.509 390.942 276.291 399.347 284.421C399.347 284.421 401.19 279.372 403.047 278.134C404.386 275.156 404.953 271.888 404.696 268.633C404.439 265.378 403.365 262.24 401.575 259.509C395.358 249.742 394.161 259.509 394.161 259.509Z" fill="#263238"/>
<path opacity="0.2" d="M409.493 240.415C408.755 242.705 407.504 244.796 405.835 246.529C404.167 248.263 402.124 249.592 399.864 250.416C388.199 255.176 376.878 249.907 365.185 248.875C355.652 248.022 345.129 256.634 344.455 266.428" stroke="white" stroke-width="1.10311" stroke-linecap="round" stroke-linejoin="round"/>
<path opacity="0.2" d="M337.262 263.845C337.405 259.98 338.645 256.235 340.837 253.049C343.029 249.863 346.083 247.366 349.642 245.852" stroke="white" stroke-width="1.10311" stroke-linecap="round" stroke-linejoin="round"/>
<path d="M352.249 328.055C357.379 333.401 363.568 337.618 370.421 340.436C370.421 340.436 384.383 336.378 391.481 326.68" stroke="#263238" stroke-width="1.10311" stroke-linecap="round" stroke-linejoin="round"/>
<path d="M361.356 304.81C368.179 304.81 373.709 299.28 373.709 292.457C373.709 285.635 368.179 280.104 361.356 280.104C354.534 280.104 349.003 285.635 349.003 292.457C349.003 299.28 354.534 304.81 361.356 304.81Z" stroke="#263238" stroke-width="1.10311" stroke-linecap="round" stroke-linejoin="round"/>
<path d="M388.967 304.81C395.789 304.81 401.32 299.28 401.32 292.457C401.32 285.635 395.789 280.104 388.967 280.104C382.144 280.104 376.614 285.635 376.614 292.457C376.614 299.28 382.144 304.81 388.967 304.81Z" stroke="#263238" stroke-width="1.10311" stroke-linecap="round" stroke-linejoin="round"/>
<path d="M354.945 323.448C353.694 323.776 352.521 324.353 351.498 325.145C350.474 325.937 349.621 326.927 348.989 328.056C346.802 331.907 348.122 344.027 348.122 344.027C348.122 344.027 359.416 355.197 369.031 359.915L371.865 343.972L376.267 359.915C376.267 359.915 391.151 349.391 395.278 340.491C395.278 340.491 396.654 330.105 395.278 326.735C394.965 325.799 394.37 324.983 393.574 324.399C392.779 323.815 391.822 323.492 390.835 323.475" stroke="#263238" stroke-width="1.10311" stroke-linecap="round" stroke-linejoin="round"/>
<path d="M337.259 430.112C337.259 430.112 332.843 400.537 326.969 388.473" stroke="#263238" stroke-width="1.10311" stroke-linecap="round" stroke-linejoin="round"/>
<path d="M314.273 362.225C317.693 367.086 320.746 372.194 323.407 377.508" stroke="#263238" stroke-width="1.10311" stroke-linecap="round" stroke-linejoin="round"/>
<path d="M430.253 384.306C431.439 379.361 433.064 374.531 435.109 369.875" stroke="#263238" stroke-width="1.10311" stroke-linecap="round" stroke-linejoin="round"/>
<path d="M421.132 430.111C421.132 430.111 424.31 409.835 428.107 393.135" stroke="#263238" stroke-width="1.10311" stroke-linecap="round" stroke-linejoin="round"/>
<path d="M426.516 401.638C429.588 397.566 433.906 394.609 438.814 393.219" stroke="#263238" stroke-width="1.10311" stroke-linecap="round" stroke-linejoin="round"/>
<path d="M395.884 337.794C395.884 337.794 421.512 348.042 438.06 353.861C438.06 353.861 458.419 372.996 480.25 439.314C480.25 439.314 460.249 472.961 422.2 483.746" stroke="#263238" stroke-width="1.10311" stroke-linecap="round" stroke-linejoin="round"/>
<path d="M428.807 452.714L447.198 437.403C447.198 437.403 456.924 430.016 467.035 435.064" stroke="#263238" stroke-width="1.10311" stroke-linecap="round" stroke-linejoin="round"/>
<path d="M428.107 399.809C428.107 399.809 443.307 422.272 447.2 437.404" stroke="#263238" stroke-width="1.10311" stroke-linecap="round" stroke-linejoin="round"/>
<path d="M324.215 442.507L318.836 437.403C318.836 437.403 310.858 436.028 301.806 442.067" stroke="#263238" stroke-width="1.10311" stroke-linecap="round" stroke-linejoin="round"/>
<path d="M318.835 437.405C318.835 437.405 325.52 415.396 332.11 404.129" stroke="#263238" stroke-width="1.10311" stroke-linecap="round" stroke-linejoin="round"/>
<path d="M347.743 340.49C347.743 340.49 310.863 354.329 307.245 358.373C303.627 362.418 289.885 439.795 289.513 448.654C289.197 456.578 317.92 474.364 332.157 481.862" stroke="#263238" stroke-width="1.10311" stroke-linecap="round" stroke-linejoin="round"/>
<path d="M375.317 366.64C375.317 367.121 375.175 367.592 374.907 367.993C374.64 368.393 374.259 368.705 373.814 368.889C373.369 369.074 372.88 369.122 372.408 369.028C371.935 368.934 371.501 368.702 371.161 368.362C370.82 368.021 370.588 367.587 370.495 367.115C370.401 366.643 370.449 366.153 370.633 365.708C370.817 365.263 371.129 364.883 371.53 364.615C371.93 364.348 372.401 364.205 372.883 364.205C373.203 364.203 373.52 364.265 373.817 364.387C374.113 364.508 374.382 364.688 374.608 364.914C374.835 365.141 375.014 365.41 375.136 365.706C375.257 366.002 375.319 366.32 375.317 366.64Z" fill="#263238"/>
<path d="M417.988 496.253H334.076C333.554 496.253 333.054 496.045 332.685 495.676C332.316 495.308 332.109 494.807 332.109 494.285C332.109 493.764 332.316 493.263 332.685 492.894C333.054 492.526 333.554 492.318 334.076 492.318H417.988C418.51 492.318 419.01 492.526 419.379 492.894C419.748 493.263 419.955 493.764 419.955 494.285C419.955 494.807 419.748 495.308 419.379 495.676C419.01 496.045 418.51 496.253 417.988 496.253Z" fill="#263238"/>
<path d="M420.932 489.678L432.171 436.855C432.346 436.036 432.335 435.188 432.139 434.374C431.943 433.56 431.568 432.8 431.04 432.15C430.513 431.499 429.846 430.975 429.09 430.616C428.333 430.257 427.506 430.071 426.669 430.073H328.588C327.758 430.073 326.938 430.258 326.187 430.613C325.437 430.968 324.775 431.486 324.248 432.128C323.722 432.77 323.345 433.521 323.144 434.326C322.943 435.132 322.923 435.972 323.085 436.786L333.169 487.849C333.416 489.103 334.084 490.235 335.062 491.058C336.04 491.881 337.269 492.345 338.547 492.374L415.292 494.135C416.604 494.164 417.885 493.735 418.915 492.922C419.944 492.108 420.658 490.961 420.932 489.678Z" fill="white" stroke="#263238" stroke-width="1.10311" stroke-linecap="round" stroke-linejoin="round"/>
<path d="M385.148 460.552C385.145 462.1 384.684 463.612 383.822 464.897C382.961 466.183 381.737 467.184 380.307 467.774C378.876 468.364 377.303 468.517 375.785 468.214C374.268 467.91 372.875 467.164 371.781 466.068C370.688 464.973 369.944 463.579 369.643 462.061C369.342 460.543 369.498 458.97 370.091 457.54C370.684 456.111 371.687 454.889 372.974 454.03C374.261 453.17 375.773 452.711 377.321 452.711C378.35 452.711 379.369 452.914 380.319 453.309C381.27 453.703 382.133 454.281 382.86 455.009C383.587 455.737 384.164 456.602 384.556 457.553C384.949 458.504 385.15 459.523 385.148 460.552Z" fill="#263238"/>
<path d="M400.531 435.118H412.183" stroke="#263238" stroke-width="1.10311" stroke-linecap="round" stroke-linejoin="round"/>
<path d="M344.887 435.118H389.113" stroke="#263238" stroke-width="1.10311" stroke-linecap="round" stroke-linejoin="round"/>
<path d="M421.123 545.761L412.182 569.229C412.182 569.229 389.374 563.479 360.17 557.495C329.618 551.236 297.717 543.133 281.169 514.094C279.161 510.559 277.812 506.377 278.762 502.415C281.141 492.387 294.196 489.664 302.793 488.659C308.199 488.075 313.63 487.772 319.067 487.751C321.818 487.751 330.966 486.252 333.181 487.889C336.508 490.317 340.06 492.422 343.787 494.176C348.67 496.253 419.954 492.318 419.954 492.318C421.194 489.614 421.953 486.714 422.196 483.748C433.407 478.053 459.338 473.239 470.342 475.371C487.579 478.714 497.635 488.769 495.722 499.307C493.81 509.844 455.734 538.099 421.123 545.761Z" fill="#263238"/>
<path d="M421.133 545.759C421.133 545.759 399.44 540.009 381.722 528.041C364.004 516.074 350.165 502.18 325.473 505.055" stroke="white" stroke-width="1.10311" stroke-linecap="round" stroke-linejoin="round"/>
<path d="M377.664 525.223C388.861 522.005 397.074 514.755 406.057 507.808C415.531 500.204 425.706 493.516 436.444 487.834" stroke="white" stroke-width="1.10311" stroke-linecap="round" stroke-linejoin="round"/>
<path d="M373.707 294.411H376.994" stroke="#263238" stroke-width="1.10311" stroke-linecap="round" stroke-linejoin="round"/>
</svg>
