<svg width="54" height="43" viewBox="0 0 54 43" fill="none" xmlns="http://www.w3.org/2000/svg">
<path d="M4.77778 37.7018L18.6667 21.3239M49.2222 37.7018L35.3333 21.3239M2 10.4053L22.0694 23.5529C23.8514 24.7204 24.7422 25.3043 25.7053 25.5308C26.5564 25.7315 27.4436 25.7315 28.2947 25.5308C29.2578 25.3043 30.1486 24.7204 31.9306 23.5529L52 10.4053M10.8889 40.4315H43.1111C46.2225 40.4315 47.7783 40.4315 48.9667 39.8364C50.0119 39.3132 50.8619 38.4779 51.3944 37.4507C52 36.283 52 34.7541 52 31.6966V10.9512C52 7.89372 52 6.36495 51.3944 5.19715C50.8619 4.1699 50.0119 3.33473 48.9667 2.81135C47.7783 2.21631 46.2225 2.21631 43.1111 2.21631H10.8889C7.7775 2.21631 6.22178 2.21631 5.03339 2.81135C3.98803 3.33473 3.13814 4.1699 2.60553 5.19715C2 6.36495 2 7.89369 2 10.9512V31.6966C2 34.7541 2 36.283 2.60553 37.4507C3.13814 38.4779 3.98803 39.3132 5.03339 39.8364C6.22178 40.4315 7.77747 40.4315 10.8889 40.4315Z" stroke="#CF32CA" stroke-width="4" stroke-linecap="round" stroke-linejoin="round"/>
</svg>