<svg width="80" height="80" viewBox="0 0 80 80" fill="none" xmlns="http://www.w3.org/2000/svg">
<path d="M14.2968 9.23438C11.4687 9.625 8.34372 10.9531 6.1406 12.7188C-1.4844 18.875 -2.0469 30.1562 4.93747 37.0938C6.5781 38.7188 9.35935 40.4688 10.3125 40.4688C11.7031 40.4688 12.5781 39.1406 12 37.8906C11.8281 37.5156 11.2656 37.1094 9.6406 36.1875C7.90622 35.2031 5.7656 32.75 4.8281 30.6875C3.73435 28.2656 3.37497 25.0156 3.9531 22.625C5.35935 16.8281 10.3906 12.8125 16.2812 12.7969C18.5937 12.7969 19.9843 13.125 22.1093 14.1875C24.5 15.375 26.3437 17.2188 27.7343 19.8125C28.2812 20.8125 28.8437 21.25 29.5937 21.25C30.5625 21.25 31.4062 20.4219 31.4062 19.4844C31.4062 18.9375 30.2968 16.8281 29.3906 15.6094C27.75 13.4531 25.1875 11.4375 22.8437 10.4531C20.1718 9.34375 16.8906 8.875 14.2968 9.23438Z" fill="white"/>
<path d="M54.9532 14.8437C52.9532 15.1875 50.8595 16.7969 49.9845 18.6562C49.7188 19.2187 49.4688 19.6875 49.422 19.6875C49.3751 19.6875 49.1563 19.5469 48.922 19.3906C47.2188 18.1719 43.9063 18.125 41.8595 19.2812C40.5938 20 39.0938 21.7812 38.8282 22.8437C38.7657 23.0937 38.6876 23.2812 38.6407 23.2812C38.6095 23.2812 38.047 23.0312 37.3907 22.7187C34.0157 21.0937 29.797 22.5312 28.2032 25.8594C27.9532 26.375 27.7345 26.8281 27.7032 26.8594C27.672 26.9062 26.0157 25.3125 24.0157 23.3125C20.0001 19.3281 19.4063 18.9062 17.3438 18.6094C15.0626 18.2969 13.047 19 11.3751 20.6875C9.34383 22.7344 8.87508 25.8594 10.1876 28.5937C10.6251 29.5312 11.7188 30.6719 23.422 42.375C30.422 49.4062 36.1251 55.1562 36.0626 55.1562C35.8126 55.1562 21.8595 57.375 21.0938 57.5312C19.1251 57.9375 17.3126 59.0937 16.172 60.6719C14.8438 62.4844 14.2813 64.875 14.7501 66.7187C15.2188 68.5312 16.5782 70.0312 18.3595 70.6406C19.2188 70.9375 55.7188 70.9687 57.4376 70.6719C60.4688 70.1406 63.7501 68.75 66.0938 67.0156C67.5157 65.9687 72.5313 61.125 74.6251 58.7812C76.6251 56.5312 77.922 54.4219 78.8282 51.9062C81.2501 45.125 79.7813 37.5 75.0157 32.0469C73.422 30.2031 62.6407 18.375 61.5157 17.2187C60.1876 15.8594 59.1407 15.2187 57.7032 14.9219C56.547 14.6719 56.0782 14.6562 54.9532 14.8437ZM57.8438 18.7969C58.4688 19.1719 71.672 33.6094 73.0782 35.4375C76.047 39.3594 77.0782 44.7812 75.7657 49.5469C75.3438 51.0625 74.2501 53.3594 73.3282 54.6719C72.5001 55.8437 66.2501 62.2344 64.6563 63.5312C62.8282 65.0469 60.5157 66.2031 58.172 66.7969C56.1876 67.2969 53.422 67.3594 36.3282 67.3125C20.9063 67.2656 19.422 67.25 19.0938 67C18.422 66.5469 18.2188 66.0937 18.2501 65.1875C18.297 63.5937 19.3438 62.0625 20.8595 61.3906C21.2345 61.2187 25.172 60.5312 30.9845 59.625C36.2032 58.7969 40.672 58.0312 40.922 57.8906C41.5313 57.5781 41.9063 56.6094 41.7188 55.9219C41.5938 55.5156 38.1563 51.9687 27.5157 41.3281C12.4532 26.25 13.0626 26.9219 13.0938 25.3437C13.0938 24.4062 13.7032 23.3125 14.5001 22.75C15.3438 22.1562 16.8282 22 17.672 22.4219C17.9688 22.5625 22.4532 26.9375 27.6563 32.1094C37.6563 42.0781 37.5626 42 38.672 41.7031C39.547 41.4531 40.1407 40.4531 39.922 39.5625C39.8595 39.2969 38.3751 37.6875 35.7813 35.0781C31.4845 30.7656 31.0938 30.25 31.0938 28.9062C31.0938 26.625 33.5157 25 35.5938 25.875C35.9688 26.0312 37.6251 27.5469 40.3126 30.2344C43.9063 33.7969 44.547 34.3594 45.0626 34.4531C46.0626 34.6406 47.1095 33.9531 47.1876 33.0469C47.2813 32.1406 47.1563 31.9687 44.8751 29.625C42.2657 26.9844 41.9376 26.4219 42.0626 24.9531C42.1876 23.3594 43.4376 22.1719 45.0938 22.0625C46.4688 21.9687 47.047 22.3281 49.7032 24.9375C51.9532 27.1562 52.0001 27.1875 52.672 27.1875C53.4688 27.1875 53.9688 26.9062 54.3126 26.2187C54.672 25.5312 54.5001 24.8125 53.7813 23.8594C53.0626 22.9062 52.9376 22.5781 52.9376 21.5625C52.9688 19.1094 55.7188 17.5469 57.8438 18.7969Z" fill="white"/>
</svg>
