<svg width="28" height="28" viewBox="0 0 28 28" fill="none" xmlns="http://www.w3.org/2000/svg">
<path d="M5.00387 3.23203C4.01403 3.36875 2.92028 3.83359 2.14918 4.45156C-0.519566 6.60625 -0.716441 10.5547 1.72809 12.9828C2.30231 13.5516 3.27575 14.1641 3.60934 14.1641C4.09606 14.1641 4.40231 13.6992 4.19997 13.2617C4.13981 13.1305 3.94293 12.9883 3.37418 12.6656C2.76715 12.3211 2.01793 11.4625 1.68981 10.7406C1.307 9.89297 1.18122 8.75547 1.38356 7.91875C1.87575 5.88984 3.63668 4.48437 5.6984 4.47891C6.50778 4.47891 6.9945 4.59375 7.73825 4.96562C8.57497 5.38125 9.22028 6.02656 9.707 6.93437C9.8984 7.28437 10.0953 7.4375 10.3578 7.4375C10.6968 7.4375 10.9922 7.14766 10.9922 6.81953C10.9922 6.62812 10.6039 5.88984 10.2867 5.46328C9.71247 4.70859 8.81559 4.00312 7.99528 3.65859C7.06012 3.27031 5.91168 3.10625 5.00387 3.23203Z" fill="#CF32CA"/>
<path d="M19.2334 5.19534C18.5334 5.31565 17.8006 5.87893 17.4944 6.52972C17.4014 6.72659 17.3139 6.89065 17.2975 6.89065C17.2811 6.89065 17.2045 6.84144 17.1225 6.78675C16.5264 6.36019 15.367 6.34378 14.6506 6.74847C14.2076 7.00003 13.6826 7.62347 13.5897 7.99534C13.5678 8.08284 13.5404 8.14847 13.524 8.14847C13.5131 8.14847 13.3162 8.06097 13.0865 7.95159C11.9053 7.38284 10.4287 7.88597 9.87092 9.05081C9.78342 9.23128 9.70685 9.38987 9.69592 9.40081C9.68498 9.41722 9.10529 8.8594 8.40529 8.1594C6.99982 6.76487 6.79201 6.61722 6.07013 6.51331C5.2717 6.40394 4.56623 6.65003 3.98107 7.24065C3.27013 7.95706 3.10607 9.05081 3.56545 10.0078C3.71857 10.336 4.10138 10.7352 8.19748 14.8313C10.6475 17.2922 12.6436 19.3047 12.6217 19.3047C12.5342 19.3047 7.6506 20.0813 7.38263 20.136C6.69357 20.2782 6.0592 20.6828 5.65998 21.2352C5.19513 21.8696 4.99826 22.7063 5.16232 23.3516C5.32638 23.986 5.80217 24.511 6.4256 24.7242C6.72638 24.8282 19.5014 24.8391 20.1029 24.7352C21.1639 24.5492 22.3123 24.0625 23.1326 23.4555C23.6303 23.0891 25.3858 21.3938 26.1186 20.5735C26.8186 19.786 27.2725 19.0477 27.5897 18.1672C28.4373 15.7938 27.9233 13.125 26.2553 11.2164C25.6975 10.5711 21.924 6.43128 21.5303 6.02659C21.0654 5.55081 20.699 5.32659 20.1959 5.22268C19.7912 5.13519 19.6272 5.12972 19.2334 5.19534ZM20.2451 6.57894C20.4639 6.71019 25.085 11.7633 25.5772 12.4032C26.6162 13.7758 26.9772 15.6735 26.5178 17.3414C26.3701 17.8719 25.9873 18.6758 25.6647 19.1352C25.3748 19.5453 23.1873 21.7821 22.6295 22.236C21.9897 22.7664 21.1803 23.1711 20.36 23.3789C19.6654 23.5539 18.6975 23.5758 12.7147 23.5594C7.31701 23.543 6.79748 23.5375 6.68263 23.45C6.44748 23.2914 6.37638 23.1328 6.38732 22.8157C6.40373 22.2578 6.77013 21.7219 7.3006 21.4867C7.43185 21.4266 8.80998 21.186 10.8444 20.8688C12.6709 20.5789 14.235 20.311 14.3225 20.2617C14.5358 20.1524 14.667 19.8133 14.6014 19.5727C14.5576 19.4305 13.3545 18.1891 9.63029 14.4649C4.35842 9.18753 4.5717 9.42269 4.58263 8.87034C4.58263 8.54222 4.79592 8.1594 5.07482 7.96253C5.37013 7.75472 5.88967 7.70003 6.18498 7.84768C6.28888 7.8969 7.85842 9.42815 9.67951 11.2383C13.1795 14.7274 13.1467 14.7 13.535 14.5961C13.8412 14.5086 14.049 14.1586 13.9725 13.8469C13.9506 13.7539 13.4311 13.1907 12.5233 12.2774C11.0194 10.768 10.8826 10.5875 10.8826 10.1172C10.8826 9.31878 11.7303 8.75003 12.4576 9.05628C12.5889 9.11097 13.1686 9.64144 14.1092 10.5821C15.367 11.8289 15.5912 12.0258 15.7717 12.0586C16.1217 12.1242 16.4881 11.8836 16.5154 11.5664C16.5483 11.2492 16.5045 11.1891 15.7061 10.3688C14.7928 9.44456 14.6779 9.24769 14.7217 8.73362C14.7654 8.17581 15.2029 7.76019 15.7826 7.7219C16.2639 7.68909 16.4662 7.81487 17.3959 8.72816C18.1834 9.50472 18.1998 9.51565 18.435 9.51565C18.7139 9.51565 18.8889 9.41722 19.0092 9.17659C19.135 8.93597 19.0748 8.6844 18.8233 8.35081C18.5717 8.01722 18.5279 7.90237 18.5279 7.5469C18.5389 6.68831 19.5014 6.14144 20.2451 6.57894Z" fill="#CF32CA"/>
</svg>
