<svg width="11" height="12" viewBox="0 0 11 12" fill="none" xmlns="http://www.w3.org/2000/svg">
<path d="M5.555 12C4.785 12 4.06313 11.84 3.38937 11.52C2.71563 11.2 2.12896 10.7675 1.62937 10.2225C1.12979 9.6775 0.733333 9.0375 0.44 8.3025C0.146667 7.5675 0 6.78 0 5.94C0 4.48 0.42625 3.1925 1.27875 2.0775C2.13125 0.9625 3.2175 0.27 4.5375 0C4.3725 0.98 4.42292 1.94318 4.68875 2.88953C4.95458 3.83588 5.41292 4.66456 6.06375 5.37557C6.71458 6.08658 7.47312 6.58729 8.33937 6.87771C9.20562 7.16812 10.0925 7.22319 11 7.04293C10.7617 8.48499 10.1292 9.67169 9.1025 10.603C8.07583 11.5343 6.89333 12 5.555 12ZM5.555 11.1C6.47167 11.1 7.30583 10.815 8.0575 10.245C8.80917 9.675 9.41417 8.95 9.8725 8.07C9.0475 7.99 8.25458 7.7825 7.49375 7.4475C6.73292 7.1125 6.06146 6.63 5.47937 6C4.89729 5.37 4.455 4.6425 4.1525 3.8175C3.85 2.9925 3.66208 2.135 3.58875 1.245C2.78208 1.725 2.11979 2.3775 1.60187 3.2025C1.08396 4.0275 0.825 4.94 0.825 5.94C0.825 7.37333 1.28486 8.59166 2.20458 9.59501C3.12431 10.5983 4.24111 11.1 5.555 11.1Z" fill="#1CCEB5"/>
</svg>
