<svg width="12" height="12" viewBox="0 0 12 12" fill="none" xmlns="http://www.w3.org/2000/svg">
<path d="M5.59091 2.04545V0H6.40909V2.04545H5.59091ZM9.08182 3.49091L8.50909 2.91818L9.95455 1.45909L10.5273 2.04545L9.08182 3.49091ZM9.95455 6.40909V5.59091H12V6.40909H9.95455ZM5.59091 12V9.95455H6.40909V12H5.59091ZM2.90455 3.47727L1.47273 2.04545L2.04545 1.47273L3.49091 2.91818L2.90455 3.47727ZM9.96818 10.5273L8.50909 9.08182L9.06818 8.52273L10.5409 9.94091L9.96818 10.5273ZM0 6.40909V5.59091H2.04545V6.40909H0ZM2.05909 10.5273L1.47273 9.95455L2.90455 8.52273L3.20455 8.79545L3.50455 9.08182L2.05909 10.5273ZM6 9.27273C5.09091 9.27273 4.31818 8.95455 3.68182 8.31818C3.04545 7.68182 2.72727 6.90909 2.72727 6C2.72727 5.09091 3.04545 4.31818 3.68182 3.68182C4.31818 3.04545 5.09091 2.72727 6 2.72727C6.90909 2.72727 7.68182 3.04545 8.31818 3.68182C8.95455 4.31818 9.27273 5.09091 9.27273 6C9.27273 6.90909 8.95455 7.68182 8.31818 8.31818C7.68182 8.95455 6.90909 9.27273 6 9.27273ZM6 8.45455C6.68182 8.45455 7.26136 8.21591 7.73864 7.73864C8.21591 7.26136 8.45455 6.68182 8.45455 6C8.45455 5.31818 8.21591 4.73864 7.73864 4.26136C7.26136 3.78409 6.68182 3.54545 6 3.54545C5.31818 3.54545 4.73864 3.78409 4.26136 4.26136C3.78409 4.73864 3.54545 5.31818 3.54545 6C3.54545 6.68182 3.78409 7.26136 4.26136 7.73864C4.73864 8.21591 5.31818 8.45455 6 8.45455Z" fill="#CF32CA"/>
</svg>
