<svg width="50" height="50" viewBox="0 0 50 50" fill="none" xmlns="http://www.w3.org/2000/svg">
<path d="M11.2815 15.1549C11.5386 13.2001 14.1812 10.5432 16.2785 10.838L16.2751 10.8348C18.3162 11.2076 19.9318 14.5849 20.8429 16.1035C21.4884 17.2053 21.0692 18.3217 20.4671 18.7928C19.6549 19.4221 18.3847 20.2906 18.6512 21.1625C19.125 22.7126 24.75 28.1204 27.5166 29.6578C28.5638 30.2396 29.3231 28.7049 29.9716 27.9186C30.4427 27.3138 31.6049 26.9523 32.7483 27.5494C34.4561 28.5055 36.0648 29.6167 37.5525 30.8676C38.2955 31.4646 38.4698 32.347 37.955 33.2795C37.0483 34.9219 34.4257 37.0879 32.522 36.6477C29.1969 35.8791 15.75 30.8676 11.4307 16.3487C11.1878 15.6619 11.249 15.4022 11.2815 15.1549Z" fill="#CF32CA"/>
<path fill-rule="evenodd" clip-rule="evenodd" d="M24.75 47.5887C21.9969 47.5887 20.4737 47.3047 18 46.5072L13.2625 48.7845C10.2704 50.2228 6.75 48.131 6.75 44.9149V40.0178C1.90474 35.6742 0 30.666 0 23.7944C0 10.6531 11.081 0 24.75 0C38.419 0 49.5 10.6531 49.5 23.7944C49.5 36.9356 38.419 47.5887 24.75 47.5887ZM11.25 38.1365L9.81889 36.8536C6.05446 33.4791 4.5 29.7064 4.5 23.7944C4.5 13.0424 13.5662 4.32625 24.75 4.32625C35.9339 4.32625 45 13.0424 45 23.7944C45 34.5464 35.9339 43.2625 24.75 43.2625C22.5322 43.2625 21.492 43.07 19.4309 42.4055L17.6591 41.8342L11.25 44.9149V38.1365Z" fill="#CF32CA"/>
</svg>
